<svg width="26" height="48" viewBox="0 0 26 48" fill="none" xmlns="http://www.w3.org/2000/svg">
<path d="M22.8036 0.148438H2.60065C1.31368 0.148438 0.269531 2.41105 0.269531 5.19986V42.2436C0.269531 45.0324 1.31368 47.295 2.60065 47.295H22.8036C24.0906 47.295 25.1348 45.0324 25.1348 42.2436V5.19986C25.1348 2.41105 24.0906 0.148438 22.8036 0.148438ZM18.7436 30.7201C18.9767 31.2252 18.9767 32.0461 18.7436 32.5512L16.7767 36.8133C16.5436 37.3185 16.1648 37.3185 15.9317 36.8133L12.7021 29.7519L9.47258 36.8133C9.23947 37.3185 8.86066 37.3185 8.62755 36.8133L6.66067 32.5512C6.42756 32.0461 6.42756 31.2252 6.66067 30.7201L9.91938 23.7217L6.66067 16.7234C6.42756 16.2183 6.42756 15.3974 6.66067 14.8923L8.62755 10.6301C8.86066 10.125 9.23947 10.125 9.47258 10.6301L12.7021 17.6916L15.9317 10.6301C16.1648 10.125 16.5436 10.125 16.7767 10.6301L18.7436 14.8923C18.9767 15.3974 18.9767 16.2183 18.7436 16.7234L15.4849 23.7217L18.7436 30.7201Z" fill="#FF8B8B"/>
</svg>
