<svg width="100" height="100" viewBox="0 0 100 100" fill="none" xmlns="http://www.w3.org/2000/svg">
<g clip-path="url(#clip0_114_28)">
<path d="M50 1.00638e-05C38.3419 -0.00738344 27.0476 4.05924 18.0701 11.4967C9.09252 18.9342 2.99611 29.275 0.834934 40.7311C-1.32624 52.1871 0.583689 64.0383 6.23448 74.2354C11.8853 84.4325 20.9217 92.3345 31.7812 96.575C31.3438 92.6188 30.9438 86.5375 31.95 82.2188C32.8625 78.3125 37.8125 57.3625 37.8125 57.3625C37.8125 57.3625 36.3187 54.3688 36.3187 49.9438C36.3187 42.9875 40.35 37.8 45.3687 37.8C49.6312 37.8 51.6937 41 51.6937 44.8438C51.6937 49.1313 48.9625 55.5438 47.55 61.4875C46.375 66.4625 50.05 70.525 54.9563 70.525C63.8438 70.525 70.675 61.15 70.675 47.625C70.675 35.6563 62.0688 27.2875 49.7875 27.2875C35.5625 27.2875 27.2125 37.9563 27.2125 48.9813C27.2125 53.2813 28.8687 57.8875 30.9312 60.3938C31.1089 60.5827 31.2345 60.8144 31.2958 61.0664C31.3572 61.3183 31.3521 61.5818 31.2812 61.8313C30.9 63.4063 30.0562 66.8063 29.8937 67.5C29.675 68.4125 29.1687 68.6063 28.2187 68.1688C21.9687 65.2625 18.0688 56.1313 18.0688 48.7938C18.0688 33.025 29.5312 18.5438 51.1063 18.5438C68.45 18.5438 81.9313 30.9 81.9313 47.4188C81.9313 64.65 71.0625 78.5188 55.9875 78.5188C50.9188 78.5188 46.1562 75.8875 44.525 72.775L41.4125 84.6625C40.2812 89.0063 37.2313 94.45 35.1937 97.7688C42.0686 99.8944 49.3212 100.511 56.4562 99.5766C63.5913 98.6422 70.4405 96.1787 76.5361 92.3544C82.6317 88.5301 87.83 83.4351 91.7759 77.4175C95.7218 71.3999 98.3223 64.6015 99.3998 57.4867C100.477 50.3719 100.006 43.1083 98.0191 36.1922C96.0319 29.2761 92.5753 22.8704 87.8854 17.4127C83.1955 11.9551 77.3828 7.574 70.8444 4.56885C64.306 1.5637 57.1959 0.00526439 50 1.00638e-05Z" fill="#37DA3E"/>
</g>
<defs>
<clipPath id="clip0_114_28">
<rect width="100" height="100" fill="white"/>
</clipPath>
</defs>
</svg>
