<svg width="305" height="72" viewBox="0 0 305 72" fill="none" xmlns="http://www.w3.org/2000/svg">
<path d="M83.7318 36C83.7318 16.1129 64.9935 0 41.8659 0C18.7384 0 0 16.1129 0 36C0 53.9681 15.3098 68.8616 35.3244 71.5645V46.4066H24.6891V36H35.3244V28.0684C35.3244 19.0466 41.5705 14.0632 51.1372 14.0632C55.7188 14.0632 60.5098 14.7658 60.5098 14.7658V23.6206H55.2293C50.0298 23.6206 48.4075 26.3961 48.4075 29.2427V36H60.0185L58.1616 46.4066H48.4075V71.5645C68.4221 68.8616 83.7318 53.9681 83.7318 36Z" fill="#6570D3"/>
<path d="M178.393 9.45C171.319 3.35323 161.9 0 151.889 0C131.226 0 114.412 14.4581 114.412 32.2258C114.412 37.9016 116.134 43.4468 119.409 48.3387L114.091 65.0323L133.961 60.5468C139.43 63.1161 145.592 64.4661 151.872 64.4661H151.889C172.535 64.4661 189.72 50.0081 189.72 32.2403C189.72 23.6323 185.466 15.5468 178.393 9.45ZM151.889 59.0371C146.284 59.0371 140.798 57.7452 136.02 55.3064L134.889 54.7258L123.106 57.3823L126.246 47.4968L125.503 46.4806C122.38 42.2129 120.743 37.2919 120.743 32.2258C120.743 17.4629 134.72 5.44355 151.906 5.44355C160.228 5.44355 168.044 8.23064 173.919 13.2968C179.794 18.3629 183.407 25.0839 183.39 32.2403C183.39 47.0177 169.057 59.0371 151.889 59.0371ZM168.973 38.9758C168.044 38.5694 163.436 36.6242 162.575 36.3629C161.714 36.0871 161.089 35.9564 160.465 36.7694C159.84 37.5823 158.051 39.3823 157.494 39.9339C156.953 40.471 156.396 40.5435 155.468 40.1371C149.964 37.771 146.352 35.9129 142.722 30.5564C141.76 29.1339 143.685 29.2355 145.474 26.1581C145.778 25.621 145.626 25.1565 145.39 24.75C145.153 24.3435 143.279 20.3806 142.503 18.7694C141.743 17.2016 140.967 17.4194 140.393 17.3903C139.852 17.3613 139.228 17.3613 138.603 17.3613C137.979 17.3613 136.966 17.5645 136.105 18.3629C135.244 19.1758 132.83 21.121 132.83 25.0839C132.83 29.0468 136.189 32.879 136.645 33.4161C137.118 33.9532 143.246 42.0823 152.649 45.5806C158.591 47.7871 160.92 47.9758 163.892 47.5984C165.698 47.3661 169.429 45.6532 170.205 43.7661C170.982 41.879 170.982 40.2677 170.745 39.9339C170.526 39.571 169.901 39.3677 168.973 38.9758Z" fill="#65D37D"/>
<path d="M263.134 0C240.007 0 221.268 16.1129 221.268 36C221.268 55.8871 240.007 72 263.134 72C286.262 72 305 55.8871 305 36C305 16.1129 286.262 0 263.134 0ZM283.696 24.6629L276.825 52.5048C276.318 54.479 274.951 54.9581 273.043 54.029L262.577 47.3952L257.529 51.5758C256.972 52.0548 256.5 52.4613 255.419 52.4613L256.162 43.3016L275.559 28.2339C276.403 27.5952 275.373 27.2323 274.259 27.871L250.287 40.8484L239.956 38.0758C237.711 37.4661 237.66 36.1452 240.429 35.2161L280.792 21.8323C282.666 21.2516 284.303 22.2242 283.696 24.6629Z" fill="#65B2D3"/>
</svg>
