<svg width="39" height="72" viewBox="0 0 39 72" fill="none" xmlns="http://www.w3.org/2000/svg">
<g filter="url(#filter0_d_125_118)">
<path d="M31.1636 39.8265H15.3867L15.7389 43.8091H30.1851C31.0139 43.8091 31.6283 45.589 31.4446 47.4581L31.1477 50.4794C32.1536 51.6086 32.8472 53.9932 32.8472 56.7527C32.8472 60.636 31.4738 63.7776 29.789 63.7216C28.1839 63.6682 26.8639 60.6561 26.8206 56.9453C26.7969 54.9182 27.1481 53.081 27.7249 51.7743H16.4418C17.0003 53.0395 17.3472 54.802 17.3472 56.7527C17.3472 60.7121 15.9195 63.9004 14.1896 63.7146C12.6536 63.5497 11.4044 60.6797 11.3237 57.1287C11.2614 54.3864 11.8854 51.9693 12.8334 50.7084L9.05273 7.96529H5.29167C4.57829 7.96529 4 6.628 4 4.97831V2.98699C4 1.3373 4.57829 0 5.29167 0H10.8097C11.4233 0 11.9522 0.998275 12.0752 2.38834L12.5685 7.96529H33.7078C34.5367 7.96529 35.151 9.74516 34.9673 11.6143L32.4231 37.5015C32.2895 38.8614 31.7667 39.8265 31.1636 39.8265ZM25.9583 20.9089H23.375V15.9306C23.375 14.8308 22.9895 13.9393 22.5139 13.9393H21.6528C21.1772 13.9393 20.7917 14.8308 20.7917 15.9306V20.9089H18.2083C17.7327 20.9089 17.3472 21.8004 17.3472 22.9002V24.8915C17.3472 25.9914 17.7327 26.8829 18.2083 26.8829H20.7917V31.8612C20.7917 32.961 21.1772 33.8525 21.6528 33.8525H22.5139C22.9895 33.8525 23.375 32.961 23.375 31.8612V26.8829H25.9583C26.4339 26.8829 26.8195 25.9914 26.8195 24.8915V22.9002C26.8195 21.8004 26.4339 20.9089 25.9583 20.9089Z" fill="#AAD897"/>
<path d="M15.3867 39.3265H14.8405L14.8886 39.8705L15.2409 43.8532L15.2812 44.3091H15.7389H30.1851C30.1984 44.3091 30.2662 44.3141 30.3808 44.4454C30.4956 44.5767 30.6174 44.7932 30.7219 45.0958C30.9297 45.6979 31.0327 46.5368 30.947 47.4092L30.6501 50.4305L30.6286 50.6485L30.7743 50.812C31.2071 51.2978 31.6046 52.0956 31.8927 53.1379C32.1786 54.1722 32.3472 55.413 32.3472 56.7527C32.3472 58.6425 32.012 60.3272 31.492 61.5137C31.2315 62.1078 30.9352 62.5531 30.6333 62.8399C30.3346 63.1236 30.0565 63.2302 29.8056 63.2219C29.5673 63.214 29.2971 63.0961 29.0065 62.8074C28.7147 62.5175 28.4291 62.0795 28.1771 61.5043C27.6737 60.3553 27.3416 58.7437 27.3205 56.9394C27.2975 54.966 27.6408 53.2029 28.1823 51.9762L28.4922 51.2743H27.7249H16.4418H15.6745L15.9843 51.9762C16.5085 53.1636 16.8472 54.8541 16.8472 56.7527C16.8472 58.68 16.4986 60.3932 15.9615 61.5823C15.6924 62.178 15.3879 62.6156 15.0809 62.888C14.7797 63.1553 14.5006 63.2452 14.243 63.2175L14.1896 63.7146L14.243 63.2175C14.0106 63.1925 13.7465 63.0609 13.4656 62.7688C13.1845 62.4765 12.9111 62.0473 12.6694 61.4919C12.1864 60.382 11.8628 58.8433 11.8236 57.1173C11.7625 54.4295 12.3805 52.1428 13.233 51.0089L13.3484 50.8555L13.3314 50.6644L9.55079 7.92124L9.51046 7.46529H9.05273H5.29167C5.28081 7.46529 5.2297 7.46232 5.1385 7.37312C5.04504 7.2817 4.93797 7.12491 4.83725 6.89198C4.63651 6.42777 4.5 5.75155 4.5 4.97831V2.98699C4.5 2.21375 4.63651 1.53753 4.83725 1.07332C4.93797 0.840384 5.04504 0.683593 5.1385 0.592176C5.2297 0.502976 5.28081 0.5 5.29167 0.5H10.8097C10.8267 0.5 10.9835 0.527406 11.1846 0.906985C11.3691 1.25511 11.5196 1.78267 11.5771 2.4324C11.5771 2.4324 11.5771 2.4324 11.5771 2.43241L12.0704 8.00935L12.1108 8.46529H12.5685H33.7078C33.7212 8.46529 33.7889 8.47032 33.9036 8.60156C34.0183 8.7329 34.1402 8.9494 34.2446 9.25201C34.4525 9.85411 34.5555 10.693 34.4697 11.5654L31.9255 37.4526C31.8631 38.0878 31.7119 38.5996 31.5298 38.9358C31.3318 39.3013 31.1798 39.3265 31.1636 39.3265H15.3867ZM25.9583 20.4089H23.875V15.9306C23.875 15.3291 23.7706 14.7607 23.5817 14.324C23.4877 14.1065 23.3628 13.8988 23.1987 13.7383C23.0323 13.5756 22.8003 13.4393 22.5139 13.4393H21.6528C21.3664 13.4393 21.1343 13.5756 20.968 13.7383C20.8039 13.8988 20.679 14.1065 20.5849 14.324C20.3961 14.7607 20.2917 15.3291 20.2917 15.9306V20.4089H18.2083C17.922 20.4089 17.6899 20.5452 17.5235 20.7079C17.3594 20.8684 17.2346 21.0762 17.1405 21.2937C16.9517 21.7303 16.8472 22.2987 16.8472 22.9002V24.8915C16.8472 25.4931 16.9517 26.0614 17.1405 26.4981C17.2346 26.7156 17.3594 26.9233 17.5235 27.0838C17.6899 27.2466 17.922 27.3829 18.2083 27.3829H20.2917V31.8612C20.2917 32.4627 20.3961 33.0311 20.5849 33.4677C20.679 33.6852 20.8039 33.893 20.968 34.0535C21.1343 34.2162 21.3664 34.3525 21.6528 34.3525H22.5139C22.8003 34.3525 23.0323 34.2162 23.1987 34.0535C23.3628 33.893 23.4877 33.6852 23.5817 33.4677C23.7706 33.0311 23.875 32.4627 23.875 31.8612V27.3829H25.9583C26.2447 27.3829 26.4768 27.2466 26.6431 27.0838C26.8072 26.9233 26.9321 26.7156 27.0262 26.4981C27.215 26.0614 27.3195 25.4931 27.3195 24.8915V22.9002C27.3195 22.2987 27.215 21.7303 27.0262 21.2937C26.9321 21.0762 26.8072 20.8684 26.6431 20.7079C26.4768 20.5452 26.2447 20.4089 25.9583 20.4089Z" stroke="black"/>
</g>
<defs>
<filter id="filter0_d_125_118" x="0" y="0" width="39" height="71.7222" filterUnits="userSpaceOnUse" color-interpolation-filters="sRGB">
<feFlood flood-opacity="0" result="BackgroundImageFix"/>
<feColorMatrix in="SourceAlpha" type="matrix" values="0 0 0 0 0 0 0 0 0 0 0 0 0 0 0 0 0 0 127 0" result="hardAlpha"/>
<feOffset dy="4"/>
<feGaussianBlur stdDeviation="2"/>
<feComposite in2="hardAlpha" operator="out"/>
<feColorMatrix type="matrix" values="0 0 0 0 0 0 0 0 0 0 0 0 0 0 0 0 0 0 0.25 0"/>
<feBlend mode="normal" in2="BackgroundImageFix" result="effect1_dropShadow_125_118"/>
<feBlend mode="normal" in="SourceGraphic" in2="effect1_dropShadow_125_118" result="shape"/>
</filter>
</defs>
</svg>
