<svg width="100" height="110" viewBox="0 0 100 110" fill="none" xmlns="http://www.w3.org/2000/svg">
<path d="M50 0C36.4313 0 34.725 0.0682184 29.3938 0.327448C24.0625 0.600321 20.4312 1.51445 17.25 2.86517C13.9115 4.23176 10.8884 6.38113 8.39375 9.16173C5.84624 11.8846 3.87703 15.1843 2.625 18.8283C1.3875 22.2938 0.54375 26.2641 0.3 32.0626C0.0625 37.8953 0 39.7508 0 54.5815C0 69.3985 0.0625 71.2541 0.3 77.0731C0.55 82.8853 1.3875 86.8488 2.625 90.3211C3.90625 93.9094 5.6125 96.9519 8.39375 99.9876C11.1688 103.023 13.9562 104.893 17.2437 106.284C20.4312 107.635 24.0563 108.556 29.3813 108.822C34.7188 109.081 36.4188 109.149 50 109.149C63.5812 109.149 65.275 109.081 70.6125 108.822C75.9313 108.549 79.575 107.635 82.7562 106.284C86.0925 104.917 89.1134 102.767 91.6062 99.9876C94.3875 96.9519 96.0938 93.9094 97.375 90.3211C98.6062 86.8488 99.45 82.8853 99.7 77.0731C99.9375 71.2541 100 69.3985 100 54.5747C100 39.7508 99.9375 37.8953 99.7 32.0695C99.45 26.2641 98.6062 22.2938 97.375 18.8283C96.123 15.1843 94.1538 11.8846 91.6062 9.16173C89.1116 6.38113 86.0885 4.23176 82.75 2.86517C79.5625 1.51445 75.925 0.5935 70.6062 0.327448C65.2687 0.0682184 63.575 0 49.9875 0H50ZM45.5187 9.83709H50.0063C63.3563 9.83709 64.9375 9.88484 70.2062 10.1509C75.0812 10.3897 77.7313 11.2833 79.4938 12.0269C81.825 13.0161 83.4938 14.2031 85.2438 16.1132C86.9938 18.0233 88.075 19.8379 88.9813 22.3893C89.6688 24.3062 90.4812 27.1987 90.7 32.5197C90.9437 38.2705 90.9938 39.9964 90.9938 54.561C90.9938 69.1257 90.9437 70.8584 90.7 76.6092C90.4812 81.9302 89.6625 84.8159 88.9813 86.7396C88.174 89.1061 86.8953 91.2474 85.2375 93.0089C83.4875 94.919 81.825 96.0992 79.4875 97.0884C77.7375 97.8388 75.0875 98.7256 70.2062 98.9712C64.9375 99.2304 63.3563 99.2918 50.0063 99.2918C36.6563 99.2918 35.0688 99.2304 29.8 98.9712C24.925 98.7256 22.2812 97.8388 20.5187 97.0884C18.349 96.2101 16.385 94.8167 14.7687 93.0089C13.108 91.2462 11.8271 89.1024 11.0188 86.7328C10.3375 84.8159 9.51875 81.9234 9.3 76.6024C9.0625 70.8516 9.0125 69.1257 9.0125 54.5474C9.0125 39.9691 9.0625 38.2569 9.3 32.506C9.525 27.185 10.3375 24.2926 11.025 22.3688C11.9313 19.8243 13.0187 18.0028 14.7687 16.0927C16.5187 14.1826 18.1812 13.0024 20.5187 12.0133C22.2812 11.2628 24.925 10.376 29.8 10.1304C34.4125 9.89848 36.2 9.83026 45.5187 9.82344V9.83709ZM76.6937 18.8965C75.9058 18.8965 75.1256 19.0659 74.3976 19.395C73.6697 19.7241 73.0083 20.2065 72.4511 20.8146C71.894 21.4228 71.452 22.1447 71.1505 22.9393C70.8489 23.7338 70.6937 24.5854 70.6937 25.4454C70.6937 26.3055 70.8489 27.1571 71.1505 27.9516C71.452 28.7462 71.894 29.4681 72.4511 30.0763C73.0083 30.6844 73.6697 31.1668 74.3976 31.4959C75.1256 31.825 75.9058 31.9944 76.6937 31.9944C78.285 31.9944 79.8112 31.3044 80.9364 30.0763C82.0616 28.8481 82.6937 27.1823 82.6937 25.4454C82.6937 23.7086 82.0616 22.0428 80.9364 20.8146C79.8112 19.5865 78.285 18.8965 76.6937 18.8965ZM50.0063 26.5506C46.6004 26.4926 43.2181 27.1747 40.0561 28.5572C36.8941 29.9396 34.0157 31.9949 31.5884 34.6032C29.1612 37.2116 27.2335 40.3209 25.9178 43.7502C24.602 47.1795 23.9244 50.8602 23.9244 54.5781C23.9244 58.296 32.0217 51.1454 33.3375 54.5747C34.6533 58.004 29.1612 71.9446 31.5884 74.5529C34.0157 77.1613 36.8941 79.2165 40.0561 80.599C43.2181 81.9815 46.6004 82.6636 50.0063 82.6056C56.7471 82.4908 63.1763 79.4874 67.9061 74.2437C72.6359 69.0001 75.2869 61.9366 75.2869 54.5781C75.2869 47.2196 72.6359 40.1561 67.9061 34.9124C63.1763 29.6688 56.7471 26.6654 50.0063 26.5506ZM50.0063 36.3808C52.1952 36.3808 54.3628 36.8514 56.3851 37.7658C58.4075 38.6801 60.245 40.0202 61.7928 41.7097C63.3407 43.3992 64.5685 45.4048 65.4062 47.6122C66.2439 49.8196 66.675 52.1854 66.675 54.5747C66.675 56.9639 66.2439 59.3298 65.4062 61.5372C64.5685 63.7445 63.3407 65.7502 61.7928 67.4397C60.245 69.1291 58.4075 70.4693 56.3851 71.3836C54.3628 72.2979 52.1952 72.7685 50.0063 72.7685C45.5854 72.7685 41.3457 70.8517 38.2197 67.4397C35.0937 64.0277 33.3375 59.4 33.3375 54.5747C33.3375 49.7494 35.0937 45.1217 38.2197 41.7097C41.3457 38.2977 45.5854 36.3808 50.0063 36.3808Z" fill="#B219AC"/>
</svg>
