<svg width="1448" height="84" viewBox="0 0 1448 84" fill="none" xmlns="http://www.w3.org/2000/svg">
<g filter="url(#filter0_d_2_15)">
<rect x="4" width="1440" height="76" fill="#FBFBFB"/>
</g>
<g filter="url(#filter1_d_2_15)">
<path d="M1349.99 40.743C1346.67 37.5573 1341.74 38.1303 1338.69 41.6708L1337.5 43.0556L1336.31 41.6708C1333.27 38.1303 1328.33 37.5573 1325.01 40.743C1321.21 44.3995 1321.01 50.962 1324.41 54.9254L1336.13 68.5551C1336.88 69.4351 1338.11 69.4351 1338.87 68.5551L1350.58 54.9254C1353.99 50.962 1353.79 44.3995 1349.99 40.743Z" fill="#30A300" fill-opacity="0.4" shape-rendering="crispEdges"/>
</g>
<g filter="url(#filter2_d_2_15)">
<path d="M1286.16 57.1178H1270.39L1270.74 59.9466H1285.19C1286.01 59.9466 1286.63 61.2108 1286.44 62.5384L1286.15 64.6844C1287.15 65.4865 1287.85 67.1802 1287.85 69.1402C1287.85 71.8985 1286.47 74.1298 1284.79 74.0901C1283.18 74.0521 1281.86 71.9127 1281.82 69.277C1281.8 67.8372 1282.15 66.5322 1282.72 65.6041H1271.44C1272 66.5028 1272.35 67.7546 1272.35 69.1402C1272.35 71.9525 1270.92 74.2171 1269.19 74.0851C1267.65 73.968 1266.4 71.9295 1266.32 69.4073C1266.26 67.4595 1266.89 65.7426 1267.83 64.8471L1264.05 34.4875H1260.29C1259.58 34.4875 1259 33.5376 1259 32.3659V30.9515C1259 29.7797 1259.58 28.8299 1260.29 28.8299H1265.81C1266.42 28.8299 1266.95 29.5389 1267.08 30.5263L1267.57 34.4875H1288.71C1289.54 34.4875 1290.15 35.7517 1289.97 37.0793L1287.42 55.4664C1287.29 56.4324 1286.77 57.1178 1286.16 57.1178ZM1280.96 43.681H1278.38V40.145C1278.38 39.3639 1277.99 38.7306 1277.51 38.7306H1276.65C1276.18 38.7306 1275.79 39.3639 1275.79 40.145V43.681H1273.21C1272.73 43.681 1272.35 44.3143 1272.35 45.0954V46.5098C1272.35 47.291 1272.73 47.9242 1273.21 47.9242H1275.79V51.4602C1275.79 52.2414 1276.18 52.8746 1276.65 52.8746H1277.51C1277.99 52.8746 1278.38 52.2414 1278.38 51.4602V47.9242H1280.96C1281.43 47.9242 1281.82 47.291 1281.82 46.5098V45.0954C1281.82 44.3143 1281.43 43.681 1280.96 43.681Z" fill="#AAD897"/>
<path d="M1270.39 56.6178H1269.82L1269.89 57.1796L1270.24 60.0084L1270.3 60.4466H1270.74H1285.19C1285.32 60.4466 1285.55 60.5577 1285.74 60.9632C1285.93 61.3488 1286.03 61.8958 1285.95 62.4699L1285.65 64.6159L1285.61 64.8979L1285.84 65.0754C1286.68 65.7496 1287.35 67.2703 1287.35 69.1402C1287.35 70.4425 1287.02 71.5956 1286.52 72.4018C1286.02 73.2165 1285.4 73.6043 1284.8 73.5902C1284.23 73.5768 1283.63 73.1858 1283.14 72.3952C1282.66 71.614 1282.34 70.511 1282.32 69.2687C1282.3 67.9086 1282.63 66.7017 1283.15 65.8681L1283.62 65.1041H1282.72H1271.44H1270.54L1271.02 65.868C1271.52 66.6749 1271.85 67.8319 1271.85 69.1402C1271.85 70.4684 1271.51 71.6407 1271 72.4484C1270.48 73.2635 1269.84 73.6332 1269.23 73.5866L1269.19 74.0851L1269.23 73.5866C1268.68 73.5448 1268.1 73.1502 1267.64 72.3869C1267.17 71.6323 1266.86 70.5794 1266.82 69.3913C1266.76 67.5371 1267.36 65.9783 1268.18 65.2105L1268.36 65.0366L1268.33 64.7853L1264.55 34.4257L1264.49 33.9875H1264.05H1260.29C1260.18 33.9875 1259.99 33.9083 1259.81 33.606C1259.63 33.3126 1259.5 32.8754 1259.5 32.3659V30.9515C1259.5 30.4419 1259.63 30.0047 1259.81 29.7113C1259.99 29.409 1260.18 29.3299 1260.29 29.3299H1265.81C1265.91 29.3299 1266.06 29.387 1266.23 29.6068C1266.39 29.8244 1266.53 30.1618 1266.58 30.5881L1267.07 34.5492L1267.13 34.9875H1267.57H1288.71C1288.84 34.9875 1289.07 35.0985 1289.27 35.5041C1289.45 35.8896 1289.55 36.4366 1289.47 37.0107L1286.93 55.3979L1287.42 55.4664L1286.93 55.3979C1286.87 55.8143 1286.73 56.1412 1286.57 56.3511C1286.41 56.5628 1286.26 56.6178 1286.16 56.6178H1270.39ZM1280.96 43.181H1278.88V40.145C1278.88 39.6781 1278.76 39.2314 1278.55 38.8849C1278.34 38.5473 1277.99 38.2306 1277.51 38.2306H1276.65C1276.17 38.2306 1275.82 38.5473 1275.62 38.8849C1275.41 39.2314 1275.29 39.6781 1275.29 40.145V43.181H1273.21C1272.73 43.181 1272.38 43.4977 1272.17 43.8353C1271.96 44.1818 1271.85 44.6285 1271.85 45.0954V46.5098C1271.85 46.9768 1271.96 47.4235 1272.17 47.77C1272.38 48.1076 1272.73 48.4242 1273.21 48.4242H1275.29V51.4602C1275.29 51.9271 1275.41 52.3739 1275.62 52.7204C1275.82 53.058 1276.17 53.3746 1276.65 53.3746H1277.51C1277.99 53.3746 1278.34 53.058 1278.55 52.7204C1278.76 52.3739 1278.88 51.9271 1278.88 51.4602V48.4242H1280.96C1281.44 48.4242 1281.79 48.1076 1281.99 47.77C1282.21 47.4235 1282.32 46.9768 1282.32 46.5098V45.0954C1282.32 44.6285 1282.21 44.1818 1281.99 43.8353C1281.79 43.4976 1281.44 43.181 1280.96 43.181Z" stroke="black"/>
</g>
<defs>
<filter id="filter0_d_2_15" x="0" y="0" width="1448" height="84" filterUnits="userSpaceOnUse" color-interpolation-filters="sRGB">
<feFlood flood-opacity="0" result="BackgroundImageFix"/>
<feColorMatrix in="SourceAlpha" type="matrix" values="0 0 0 0 0 0 0 0 0 0 0 0 0 0 0 0 0 0 127 0" result="hardAlpha"/>
<feOffset dy="4"/>
<feGaussianBlur stdDeviation="2"/>
<feComposite in2="hardAlpha" operator="out"/>
<feColorMatrix type="matrix" values="0 0 0 0 0 0 0 0 0 0 0 0 0 0 0 0 0 0 0.25 0"/>
<feBlend mode="normal" in2="BackgroundImageFix" result="effect1_dropShadow_2_15"/>
<feBlend mode="normal" in="SourceGraphic" in2="effect1_dropShadow_2_15" result="shape"/>
</filter>
<filter id="filter1_d_2_15" x="1318" y="38.6533" width="39" height="38.5618" filterUnits="userSpaceOnUse" color-interpolation-filters="sRGB">
<feFlood flood-opacity="0" result="BackgroundImageFix"/>
<feColorMatrix in="SourceAlpha" type="matrix" values="0 0 0 0 0 0 0 0 0 0 0 0 0 0 0 0 0 0 127 0" result="hardAlpha"/>
<feOffset dy="4"/>
<feGaussianBlur stdDeviation="2"/>
<feComposite in2="hardAlpha" operator="out"/>
<feColorMatrix type="matrix" values="0 0 0 0 0 0 0 0 0 0 0 0 0 0 0 0 0 0 0.25 0"/>
<feBlend mode="normal" in2="BackgroundImageFix" result="effect1_dropShadow_2_15"/>
<feBlend mode="normal" in="SourceGraphic" in2="effect1_dropShadow_2_15" result="shape"/>
</filter>
<filter id="filter2_d_2_15" x="1255" y="28.8299" width="39" height="53.2607" filterUnits="userSpaceOnUse" color-interpolation-filters="sRGB">
<feFlood flood-opacity="0" result="BackgroundImageFix"/>
<feColorMatrix in="SourceAlpha" type="matrix" values="0 0 0 0 0 0 0 0 0 0 0 0 0 0 0 0 0 0 127 0" result="hardAlpha"/>
<feOffset dy="4"/>
<feGaussianBlur stdDeviation="2"/>
<feComposite in2="hardAlpha" operator="out"/>
<feColorMatrix type="matrix" values="0 0 0 0 0 0 0 0 0 0 0 0 0 0 0 0 0 0 0.25 0"/>
<feBlend mode="normal" in2="BackgroundImageFix" result="effect1_dropShadow_2_15"/>
<feBlend mode="normal" in="SourceGraphic" in2="effect1_dropShadow_2_15" result="shape"/>
</filter>
</defs>
</svg>
