<svg width="143" height="43" viewBox="0 0 143 43" fill="none" xmlns="http://www.w3.org/2000/svg">
<g filter="url(#filter0_d_2_125)">
<path d="M13.5693 1.55068L10.9525 9.57716L5.098 10.8684C4.04811 11.0988 3.62735 13.0569 4.38872 14.1784L8.62435 20.4226L7.62254 29.2432C7.44222 30.8376 8.55222 32.0319 9.48189 31.2862L14.7193 27.1214L19.9568 31.2862C20.8864 32.0258 21.9964 30.8376 21.8161 29.2432L20.8143 20.4226L25.0499 14.1784C25.8113 13.0569 25.3905 11.0988 24.3407 10.8684L18.4861 9.57716L15.8694 1.55068C15.4006 0.119981 14.0421 0.101794 13.5693 1.55068Z" fill="#F27921"/>
</g>
<g filter="url(#filter1_d_2_125)">
<path d="M41.2671 1.55068L38.6504 9.57716L32.7959 10.8684C31.746 11.0988 31.3252 13.0569 32.0866 14.1784L36.3222 20.4226L35.3204 29.2432C35.1401 30.8376 36.2501 32.0319 37.1798 31.2862L42.4172 27.1214L47.6546 31.2862C48.5843 32.0258 49.6943 30.8376 49.514 29.2432L48.5122 20.4226L52.7478 14.1784C53.5092 13.0569 53.0884 11.0988 52.0385 10.8684L46.184 9.57716L43.5673 1.55068C43.0984 0.119981 41.74 0.101794 41.2671 1.55068Z" fill="#F27921"/>
</g>
<g filter="url(#filter2_d_2_125)">
<path d="M68.965 1.55068L66.3483 9.57716L60.4938 10.8684C59.4439 11.0988 59.0231 13.0569 59.7845 14.1784L64.0201 20.4226L63.0183 29.2432C62.838 30.8376 63.948 32.0319 64.8777 31.2862L70.1151 27.1214L75.3525 31.2862C76.2822 32.0258 77.3922 30.8376 77.2119 29.2432L76.2101 20.4226L80.4457 14.1784C81.2071 13.0569 80.7863 11.0988 79.7364 10.8684L73.8819 9.57716L71.2652 1.55068C70.7963 0.119981 69.4379 0.101794 68.965 1.55068Z" fill="#FF9345"/>
</g>
<g filter="url(#filter3_d_2_125)">
<path d="M98.5095 2.94741L95.8927 10.9739L90.0382 12.2652C88.9883 12.4955 88.5675 14.4536 89.3289 15.5752L93.5645 21.8193L92.5627 30.64C92.3824 32.2344 93.4924 33.4286 94.4221 32.683L99.6595 28.5182L104.897 32.683C105.827 33.4226 106.937 32.2344 106.756 30.64L105.755 21.8193L109.99 15.5752C110.752 14.4536 110.331 12.4955 109.281 12.2652L103.426 10.9739L100.81 2.94741C100.341 1.51671 98.9823 1.49852 98.5095 2.94741Z" fill="#FF9344" fill-opacity="0.97" shape-rendering="crispEdges"/>
</g>
<g filter="url(#filter4_d_2_125)">
<path d="M127.131 4.3442L124.514 12.3707L118.659 13.6619C117.609 13.8923 117.189 15.8504 117.95 16.972L122.186 23.2161L121.184 32.0368C121.004 33.6311 122.114 34.8254 123.043 34.0798L128.281 29.915L133.518 34.0798C134.448 34.8194 135.558 33.6311 135.377 32.0368L134.376 23.2161L138.611 16.972C139.373 15.8504 138.952 13.8923 137.902 13.6619L132.047 12.3707L129.431 4.3442C128.962 2.9135 127.603 2.89531 127.131 4.3442Z" fill="#FFC093"/>
</g>
<defs>
<filter id="filter0_d_2_125" x="0" y="0.470825" width="29.4387" height="39.0428" filterUnits="userSpaceOnUse" color-interpolation-filters="sRGB">
<feFlood flood-opacity="0" result="BackgroundImageFix"/>
<feColorMatrix in="SourceAlpha" type="matrix" values="0 0 0 0 0 0 0 0 0 0 0 0 0 0 0 0 0 0 127 0" result="hardAlpha"/>
<feOffset dy="4"/>
<feGaussianBlur stdDeviation="2"/>
<feComposite in2="hardAlpha" operator="out"/>
<feColorMatrix type="matrix" values="0 0 0 0 0 0 0 0 0 0 0 0 0 0 0 0 0 0 0.25 0"/>
<feBlend mode="normal" in2="BackgroundImageFix" result="effect1_dropShadow_2_125"/>
<feBlend mode="normal" in="SourceGraphic" in2="effect1_dropShadow_2_125" result="shape"/>
</filter>
<filter id="filter1_d_2_125" x="27.6979" y="0.470825" width="29.4387" height="39.0428" filterUnits="userSpaceOnUse" color-interpolation-filters="sRGB">
<feFlood flood-opacity="0" result="BackgroundImageFix"/>
<feColorMatrix in="SourceAlpha" type="matrix" values="0 0 0 0 0 0 0 0 0 0 0 0 0 0 0 0 0 0 127 0" result="hardAlpha"/>
<feOffset dy="4"/>
<feGaussianBlur stdDeviation="2"/>
<feComposite in2="hardAlpha" operator="out"/>
<feColorMatrix type="matrix" values="0 0 0 0 0 0 0 0 0 0 0 0 0 0 0 0 0 0 0.25 0"/>
<feBlend mode="normal" in2="BackgroundImageFix" result="effect1_dropShadow_2_125"/>
<feBlend mode="normal" in="SourceGraphic" in2="effect1_dropShadow_2_125" result="shape"/>
</filter>
<filter id="filter2_d_2_125" x="55.3958" y="0.470825" width="29.4387" height="39.0428" filterUnits="userSpaceOnUse" color-interpolation-filters="sRGB">
<feFlood flood-opacity="0" result="BackgroundImageFix"/>
<feColorMatrix in="SourceAlpha" type="matrix" values="0 0 0 0 0 0 0 0 0 0 0 0 0 0 0 0 0 0 127 0" result="hardAlpha"/>
<feOffset dy="4"/>
<feGaussianBlur stdDeviation="2"/>
<feComposite in2="hardAlpha" operator="out"/>
<feColorMatrix type="matrix" values="0 0 0 0 0 0 0 0 0 0 0 0 0 0 0 0 0 0 0.25 0"/>
<feBlend mode="normal" in2="BackgroundImageFix" result="effect1_dropShadow_2_125"/>
<feBlend mode="normal" in="SourceGraphic" in2="effect1_dropShadow_2_125" result="shape"/>
</filter>
<filter id="filter3_d_2_125" x="84.9402" y="1.86755" width="29.4387" height="39.0428" filterUnits="userSpaceOnUse" color-interpolation-filters="sRGB">
<feFlood flood-opacity="0" result="BackgroundImageFix"/>
<feColorMatrix in="SourceAlpha" type="matrix" values="0 0 0 0 0 0 0 0 0 0 0 0 0 0 0 0 0 0 127 0" result="hardAlpha"/>
<feOffset dy="4"/>
<feGaussianBlur stdDeviation="2"/>
<feComposite in2="hardAlpha" operator="out"/>
<feColorMatrix type="matrix" values="0 0 0 0 0 0 0 0 0 0 0 0 0 0 0 0 0 0 0.25 0"/>
<feBlend mode="normal" in2="BackgroundImageFix" result="effect1_dropShadow_2_125"/>
<feBlend mode="normal" in="SourceGraphic" in2="effect1_dropShadow_2_125" result="shape"/>
</filter>
<filter id="filter4_d_2_125" x="113.561" y="3.26434" width="29.4387" height="39.0428" filterUnits="userSpaceOnUse" color-interpolation-filters="sRGB">
<feFlood flood-opacity="0" result="BackgroundImageFix"/>
<feColorMatrix in="SourceAlpha" type="matrix" values="0 0 0 0 0 0 0 0 0 0 0 0 0 0 0 0 0 0 127 0" result="hardAlpha"/>
<feOffset dy="4"/>
<feGaussianBlur stdDeviation="2"/>
<feComposite in2="hardAlpha" operator="out"/>
<feColorMatrix type="matrix" values="0 0 0 0 0 0 0 0 0 0 0 0 0 0 0 0 0 0 0.25 0"/>
<feBlend mode="normal" in2="BackgroundImageFix" result="effect1_dropShadow_2_125"/>
<feBlend mode="normal" in="SourceGraphic" in2="effect1_dropShadow_2_125" result="shape"/>
</filter>
</defs>
</svg>
