<svg width="36" height="34" viewBox="0 0 36 34" fill="none" xmlns="http://www.w3.org/2000/svg">
<g filter="url(#filter0_d_114_181)">
<path fill-rule="evenodd" clip-rule="evenodd" d="M23.9243 18.3699C21.9327 20.0074 19.2654 21.0201 16.2917 21.0201C9.96744 21.0201 5.02905 16.4398 5.02905 11.01C5.02905 5.58026 9.96744 1 16.2917 1C22.616 1 27.5544 5.58026 27.5544 11.01C27.5544 13.554 26.4703 15.9115 24.6676 17.6988L24.614 17.6455L23.9088 18.3545L23.9243 18.3699ZM24.6361 19.078C22.4474 20.9036 19.5148 22.0201 16.2917 22.0201C9.51923 22.0201 4.02905 17.0907 4.02905 11.01C4.02905 4.92936 9.51923 0 16.2917 0C23.0642 0 28.5544 4.92936 28.5544 11.01C28.5544 13.8563 27.3514 16.4503 25.3772 18.4046L31.6514 24.6455L30.9461 25.3545L24.6361 19.078Z" fill="black" fill-opacity="0.8" shape-rendering="crispEdges"/>
</g>
<defs>
<filter id="filter0_d_114_181" x="0.0290527" y="0" width="35.6223" height="33.3545" filterUnits="userSpaceOnUse" color-interpolation-filters="sRGB">
<feFlood flood-opacity="0" result="BackgroundImageFix"/>
<feColorMatrix in="SourceAlpha" type="matrix" values="0 0 0 0 0 0 0 0 0 0 0 0 0 0 0 0 0 0 127 0" result="hardAlpha"/>
<feOffset dy="4"/>
<feGaussianBlur stdDeviation="2"/>
<feComposite in2="hardAlpha" operator="out"/>
<feColorMatrix type="matrix" values="0 0 0 0 0 0 0 0 0 0 0 0 0 0 0 0 0 0 0.25 0"/>
<feBlend mode="normal" in2="BackgroundImageFix" result="effect1_dropShadow_114_181"/>
<feBlend mode="normal" in="SourceGraphic" in2="effect1_dropShadow_114_181" result="shape"/>
</filter>
</defs>
</svg>
