<svg width="39" height="55" viewBox="0 0 39 55" fill="none" xmlns="http://www.w3.org/2000/svg">
<g filter="url(#filter0_d_114_175)">
<path d="M31.1636 29.1178H15.3867L15.7389 31.9466H30.1851C31.0139 31.9466 31.6283 33.2108 31.4446 34.5384L31.1477 36.6844C32.1536 37.4864 32.8472 39.1802 32.8472 41.1402C32.8472 43.8984 31.4738 46.1298 29.789 46.09C28.1839 46.0521 26.8639 43.9127 26.8206 41.2769C26.7969 39.8372 27.1481 38.5322 27.7249 37.6041H16.4418C17.0003 38.5028 17.3472 39.7546 17.3472 41.1402C17.3472 43.9524 15.9195 46.2171 14.1896 46.0851C12.6536 45.968 11.4044 43.9295 11.3237 41.4072C11.2614 39.4594 11.8854 37.7426 12.8334 36.847L9.05273 6.48743H5.29167C4.57829 6.48743 4 5.53757 4 4.36583V2.95143C4 1.77969 4.57829 0.829834 5.29167 0.829834H10.8097C11.4233 0.829834 11.9522 1.53889 12.0752 2.52623L12.5685 6.48743H33.7078C34.5367 6.48743 35.151 7.75163 34.9673 9.07922L32.4231 27.4664C32.2895 28.4323 31.7667 29.1178 31.1636 29.1178ZM25.9583 15.681H23.375V12.145C23.375 11.3638 22.9895 10.7306 22.5139 10.7306H21.6528C21.1772 10.7306 20.7917 11.3638 20.7917 12.145V15.681H18.2083C17.7327 15.681 17.3472 16.3142 17.3472 17.0954V18.5098C17.3472 19.291 17.7327 19.9242 18.2083 19.9242H20.7917V23.4602C20.7917 24.2414 21.1772 24.8746 21.6528 24.8746H22.5139C22.9895 24.8746 23.375 24.2414 23.375 23.4602V19.9242H25.9583C26.4339 19.9242 26.8195 19.291 26.8195 18.5098V17.0954C26.8195 16.3142 26.4339 15.681 25.9583 15.681Z" fill="#AAD897"/>
<path d="M15.3867 28.6178H14.8206L14.8905 29.1796L15.2428 32.0084L15.2973 32.4466H15.7389H30.1851C30.3208 32.4466 30.5478 32.5577 30.7448 32.9632C30.9322 33.3488 31.0287 33.8957 30.9493 34.4699L30.6524 36.6159L30.6134 36.8979L30.836 37.0753C31.6816 37.7496 32.3472 39.2703 32.3472 41.1402C32.3472 42.4425 32.0219 43.5956 31.5244 44.4018C31.0217 45.2165 30.3979 45.6043 29.8008 45.5902C29.2323 45.5767 28.6324 45.1858 28.1447 44.3952C27.6628 43.614 27.3409 42.511 27.3205 41.2687C27.2981 39.9086 27.6315 38.7016 28.1496 37.868L28.6244 37.1041H27.7249H16.4418H15.5424L16.0171 37.868C16.5185 38.6749 16.8472 39.8319 16.8472 41.1402C16.8472 42.4683 16.5089 43.6407 15.9952 44.4484C15.4768 45.2635 14.8387 45.6332 14.2277 45.5865L14.1896 46.0851L14.2277 45.5865C13.6794 45.5447 13.105 45.1502 12.6373 44.3868C12.1749 43.6322 11.8615 42.5794 11.8234 41.3912C11.7641 39.537 12.364 37.9783 13.1767 37.2105L13.3609 37.0366L13.3296 36.7853L9.5489 6.42564L9.49433 5.98743H9.05273H5.29167C5.176 5.98743 4.98942 5.90828 4.80539 5.60602C4.62676 5.31261 4.5 4.87537 4.5 4.36583V2.95143C4.5 2.44189 4.62676 2.00465 4.80539 1.71124C4.98942 1.40898 5.176 1.32983 5.29167 1.32983H10.8097C10.9093 1.32983 11.0617 1.38693 11.2257 1.60674C11.388 1.82435 11.5259 2.16175 11.579 2.58803L12.0723 6.54922L12.1269 6.98743H12.5685H33.7078C33.8436 6.98743 34.0705 7.09851 34.2676 7.50402C34.455 7.88961 34.5515 8.43657 34.4721 9.01069L31.9279 27.3979L32.4231 27.4664L31.9278 27.3979C31.8702 27.8143 31.732 28.1411 31.5719 28.3511C31.4104 28.5627 31.2616 28.6178 31.1636 28.6178H15.3867ZM25.9583 15.181H23.875V12.145C23.875 11.6781 23.7608 11.2313 23.5499 10.8849C23.3443 10.5472 22.9927 10.2306 22.5139 10.2306H21.6528C21.174 10.2306 20.8224 10.5472 20.6168 10.8849C20.4059 11.2313 20.2917 11.6781 20.2917 12.145V15.181H18.2083C17.7295 15.181 17.3779 15.4976 17.1724 15.8353C16.9614 16.1817 16.8472 16.6285 16.8472 17.0954V18.5098C16.8472 18.9767 16.9614 19.4235 17.1724 19.77C17.3779 20.1076 17.7295 20.4242 18.2083 20.4242H20.2917V23.4602C20.2917 23.9271 20.4059 24.3739 20.6168 24.7204C20.8224 25.058 21.174 25.3746 21.6528 25.3746H22.5139C22.9927 25.3746 23.3443 25.058 23.5499 24.7204C23.7608 24.3739 23.875 23.9271 23.875 23.4602V20.4242H25.9583C26.4371 20.4242 26.7888 20.1076 26.9943 19.77C27.2053 19.4235 27.3195 18.9767 27.3195 18.5098V17.0954C27.3195 16.6285 27.2053 16.1817 26.9943 15.8353C26.7888 15.4976 26.4371 15.181 25.9583 15.181Z" stroke="black"/>
</g>
<defs>
<filter id="filter0_d_114_175" x="0" y="0.829834" width="39" height="53.2607" filterUnits="userSpaceOnUse" color-interpolation-filters="sRGB">
<feFlood flood-opacity="0" result="BackgroundImageFix"/>
<feColorMatrix in="SourceAlpha" type="matrix" values="0 0 0 0 0 0 0 0 0 0 0 0 0 0 0 0 0 0 127 0" result="hardAlpha"/>
<feOffset dy="4"/>
<feGaussianBlur stdDeviation="2"/>
<feComposite in2="hardAlpha" operator="out"/>
<feColorMatrix type="matrix" values="0 0 0 0 0 0 0 0 0 0 0 0 0 0 0 0 0 0 0.25 0"/>
<feBlend mode="normal" in2="BackgroundImageFix" result="effect1_dropShadow_114_175"/>
<feBlend mode="normal" in="SourceGraphic" in2="effect1_dropShadow_114_175" result="shape"/>
</filter>
</defs>
</svg>
